REM DIRINDEX 1\2,1\4,1\3\5,1\3\6,1\3\7
REM DIRNAME cjc082,folder01,folder02,folder03,folder04,folder05,folder06
TITLE ""
FILE "CD1Track22.mp3" MP3
  TRACK 01 AUDIO
    TITLE "0:"
    INDEX 01 00:00:00
  TRACK 02 AUDIO
    TITLE "5:cjc082_0364"
    INDEX 01 00:00:19
  TRACK 03 AUDIO
    TITLE "0:"
    INDEX 01 00:01:34
  TRACK 04 AUDIO
    TITLE "6:cjc082_0365"
    INDEX 01 00:02:02
  TRACK 05 AUDIO
    TITLE "0:"
    INDEX 01 00:03:15
  TRACK 06 AUDIO
    TITLE "5:cjc082_0366"
    INDEX 01 00:03:63
  TRACK 07 AUDIO
    TITLE "0:"
    INDEX 01 00:05:16
  TRACK 08 AUDIO
    TITLE "6:cjc082_0367"
    INDEX 01 00:05:57
  TRACK 09 AUDIO
    TITLE "0:"
    INDEX 01 00:07:43
  TRACK 10 AUDIO
    TITLE "5:cjc082_0368"
    INDEX 01 00:08:17
  TRACK 11 AUDIO
    TITLE "0:"
    INDEX 01 00:09:42
  TRACK 12 AUDIO
    TITLE "6:cjc082_0369"
    INDEX 01 00:10:12
  TRACK 13 AUDIO
    TITLE "0:"
    INDEX 01 00:11:74
  TRACK 14 AUDIO
    TITLE "5:cjc082_0370"
    INDEX 01 00:12:44
  TRACK 15 AUDIO
    TITLE "0:"
    INDEX 01 00:13:55
  TRACK 16 AUDIO
    TITLE "6:cjc082_0371"
    INDEX 01 00:14:25
  TRACK 17 AUDIO
    TITLE "0:"
    INDEX 01 00:16:10
  TRACK 18 AUDIO
    TITLE "5:cjc082_0372"
    INDEX 01 00:16:57
  TRACK 19 AUDIO
    TITLE "0:"
    INDEX 01 00:18:01
  TRACK 20 AUDIO
    TITLE "6:cjc082_0373"
    INDEX 01 00:18:46
  TRACK 21 AUDIO
    TITLE "0:"
    INDEX 01 00:19:40
  TRACK 22 AUDIO
    TITLE "5:cjc082_0374"
    INDEX 01 00:20:12
  TRACK 23 AUDIO
    TITLE "0:"
    INDEX 01 00:21:25
  TRACK 24 AUDIO
    TITLE "6:cjc082_0375"
    INDEX 01 00:21:72
  TRACK 25 AUDIO
    TITLE "0:"
    INDEX 01 00:24:29
  TRACK 26 AUDIO
    TITLE "5:cjc082_0376"
    INDEX 01 00:25:01
  TRACK 27 AUDIO
    TITLE "0:"
    INDEX 01 00:26:15
  TRACK 28 AUDIO
    TITLE "6:cjc082_0377"
    INDEX 01 00:26:62
  TRACK 29 AUDIO
    TITLE "0:"
    INDEX 01 00:27:67
  TRACK 30 AUDIO
    TITLE "5:cjc082_0378"
    INDEX 01 00:28:41
  TRACK 31 AUDIO
    TITLE "0:"
    INDEX 01 00:29:56
  TRACK 32 AUDIO
    TITLE "6:cjc082_0379"
    INDEX 01 00:30:22
  TRACK 33 AUDIO
    TITLE "0:"
    INDEX 01 00:31:39
  TRACK 34 AUDIO
    TITLE "5:cjc082_0380"
    INDEX 01 00:32:11
  TRACK 35 AUDIO
    TITLE "0:"
    INDEX 01 00:33:48
  TRACK 36 AUDIO
    TITLE "6:cjc082_0381"
    INDEX 01 00:34:12
  TRACK 37 AUDIO
    TITLE "0:"
    INDEX 01 00:36:05
  TRACK 38 AUDIO
    TITLE "5:cjc082_0382"
    INDEX 01 00:36:52
  TRACK 39 AUDIO
    TITLE "0:"
    INDEX 01 00:37:65
  TRACK 40 AUDIO
    TITLE "6:cjc082_0383"
    INDEX 01 00:38:35
  TRACK 41 AUDIO
    TITLE "0:"
    INDEX 01 00:39:52
  TRACK 42 AUDIO
    TITLE "5:cjc082_0384"
    INDEX 01 00:40:17
  TRACK 43 AUDIO
    TITLE "0:"
    INDEX 01 00:41:55
  TRACK 44 AUDIO
    TITLE "6:cjc082_0385"
    INDEX 01 00:42:29
  TRACK 45 AUDIO
    TITLE "0:"
    INDEX 01 00:43:35
  TRACK 46 AUDIO
    TITLE "5:cjc082_0386"
    INDEX 01 00:44:03
  TRACK 47 AUDIO
    TITLE "0:"
    INDEX 01 00:45:14
  TRACK 48 AUDIO
    TITLE "6:cjc082_0387"
    INDEX 01 00:45:67
  TRACK 49 AUDIO
    TITLE "0:"
    INDEX 01 00:47:13
  TRACK 50 AUDIO
    TITLE "5:cjc082_0388"
    INDEX 01 00:47:52
  TRACK 51 AUDIO
    TITLE "0:"
    INDEX 01 00:48:71
  TRACK 52 AUDIO
    TITLE "6:cjc082_0389"
    INDEX 01 00:49:47
  TRACK 53 AUDIO
    TITLE "0:"
    INDEX 01 00:51:01
  TRACK 54 AUDIO
    TITLE "5:cjc082_0390"
    INDEX 01 00:51:44
  TRACK 55 AUDIO
    TITLE "0:"
    INDEX 01 00:52:59
  TRACK 56 AUDIO
    TITLE "6:cjc082_0391"
    INDEX 01 00:53:29
  TRACK 57 AUDIO
    TITLE "0:"
    INDEX 01 00:56:29
  TRACK 58 AUDIO
    TITLE "5:cjc082_0392"
    INDEX 01 00:57:01
  TRACK 59 AUDIO
    TITLE "0:"
    INDEX 01 00:58:26
  TRACK 60 AUDIO
    TITLE "6:cjc082_0393"
    INDEX 01 00:59:00
  TRACK 61 AUDIO
    TITLE "0:"
    INDEX 01 01:00:19
  TRACK 62 AUDIO
    TITLE "7:cjc082_0394"
    INDEX 01 01:01:54
  TRACK 63 AUDIO
    TITLE "0:"
    INDEX 01 01:12:11
